<svg xmlns="http://www.w3.org/2000/svg" width="32px" height="32px"  viewBox="0 0 24 24"><g>
                <path d="M15.001,12.501h-2.5v2.5c0,0.64-1,0.64-1,0v-2.5h-2.5c-0.65,0-0.64-1,0-1h2.5v-2.5
                    c0-0.64,1-0.64,1,0v2.5h2.5C15.641,11.501,15.641,12.501,15.001,12.501z"/>
                <path d="M12,21.933c-5.477,0-9.933-4.456-9.933-9.933S6.523,2.067,12,2.067S21.933,6.523,21.933,12
                    S17.477,21.933,12,21.933z M12,3.067c-4.926,0-8.933,4.007-8.933,8.933S7.074,20.933,12,20.933s8.933-4.007,8.933-8.933
                    S16.926,3.067,12,3.067z"/>
            </g></svg>