<svg xmlns="http://www.w3.org/2000/svg" width="32px" height="32px"  viewBox="0 0 24 24"><g>
                <path d="M15,11.5L15,11.5c0.645,0,0.643,1,0,1c-0.248,0-4.248,0-6,0c-0.645,0-0.643-1,0-1H15z"/>
                <path d="M12,21.933c-5.478,0-9.934-4.456-9.934-9.933S6.522,2.067,12,2.067S21.934,6.523,21.934,12
                    S17.478,21.933,12,21.933z M12,3.067c-4.926,0-8.934,4.007-8.934,8.933S7.074,20.933,12,20.933s8.934-4.007,8.934-8.933
                    S16.926,3.067,12,3.067z"/>
            </g></svg>