<svg width="26" height="26" viewBox="0 0 26 26" fill="none" xmlns="http://www.w3.org/2000/svg">
<g clip-path="url(#clip0_185_96)">
<path d="M24.4616 6.00881L20.2221 1.7477C19.942 1.46897 19.5629 1.3125 19.1677 1.3125C18.7725 1.3125 18.3934 1.46897 18.1133 1.7477L3.08381 16.7555L1.71159 22.6777C1.66425 22.8942 1.66587 23.1185 1.71634 23.3343C1.7668 23.5501 1.86483 23.7519 2.00326 23.9249C2.1417 24.098 2.31704 24.2379 2.51649 24.3345C2.71593 24.4311 2.93443 24.4819 3.15603 24.4833C3.25925 24.4944 3.36337 24.4944 3.46659 24.4833L9.45381 23.111L24.4616 8.1177C24.7403 7.83756 24.8968 7.45844 24.8968 7.06326C24.8968 6.66807 24.7403 6.28896 24.4616 6.00881ZM8.73159 21.811L3.11992 22.9883L4.39825 17.4849L15.6433 6.28326L19.9766 10.6166L8.73159 21.811ZM20.9444 9.56937L16.611 5.23604L19.1244 2.73715L23.3855 7.07048L20.9444 9.56937Z" fill="#CCCCCC"/>
</g>
<defs>
<clipPath id="clip0_185_96">
<rect width="26" height="26" fill="white"/>
</clipPath>
</defs>
</svg>
