<svg width="24" height="24" viewBox="0 0 24 24" fill="none" xmlns="http://www.w3.org/2000/svg">
<path d="M12.005 15.154C13.021 15.154 13.883 14.7983 14.591 14.087C15.299 13.3757 15.6533 12.512 15.654 11.496C15.6547 10.48 15.299 9.61767 14.587 8.909C13.875 8.20033 13.0113 7.846 11.996 7.846C10.9807 7.846 10.1183 8.20167 9.40901 8.913C8.69967 9.62433 8.34534 10.4883 8.34601 11.505C8.34667 12.5217 8.70234 13.3837 9.41301 14.091C10.1237 14.7983 10.9877 15.1527 12.005 15.154ZM12 14.2C11.25 14.2 10.6127 13.9377 10.088 13.413C9.56334 12.8883 9.30067 12.2507 9.30001 11.5C9.29934 10.7493 9.56201 10.112 10.088 9.588C10.614 9.064 11.2513 8.80133 12 8.8C12.7487 8.79867 13.3863 9.06133 13.913 9.588C14.4397 10.1147 14.702 10.752 14.7 11.5C14.698 12.248 14.4357 12.8857 13.913 13.413C13.3903 13.9403 12.7527 14.2027 12 14.2ZM12 18C10.0227 18 8.20934 17.4767 6.56001 16.43C4.91067 15.3833 3.57867 14.012 2.56401 12.316C2.48067 12.178 2.42134 12.0423 2.38601 11.909C2.35067 11.7757 2.33301 11.639 2.33301 11.499C2.33301 11.359 2.35067 11.2223 2.38601 11.089C2.42134 10.9557 2.48067 10.8207 2.56401 10.684C3.57934 8.988 4.91134 7.61667 6.56001 6.57C8.20867 5.52333 10.022 5 12 5C13.978 5 15.7913 5.52333 17.44 6.57C19.0887 7.61667 20.421 8.98833 21.437 10.685C21.5203 10.8217 21.5797 10.9567 21.615 11.09C21.6503 11.2233 21.6677 11.3603 21.667 11.501C21.6663 11.6417 21.649 11.7783 21.615 11.911C21.581 12.0437 21.5217 12.1787 21.437 12.316C20.4217 14.0127 19.0893 15.3843 17.44 16.431C15.7907 17.4777 13.9773 18.0007 12 18ZM12 17C13.8833 17 15.6127 16.5043 17.188 15.513C18.7633 14.5217 19.9673 13.184 20.8 11.5C19.9667 9.81667 18.7623 8.47933 17.187 7.488C15.6117 6.49667 13.8827 6.00067 12 6C10.1173 5.99933 8.38834 6.49533 6.81301 7.488C5.23767 8.48067 4.03334 9.818 3.20001 11.5C4.03334 13.1833 5.23767 14.521 6.81301 15.513C8.38834 16.505 10.1173 17.0007 12 17Z" fill="#AFAFAF"/>
</svg>
